# xmcd
#
# Track frame offsets: 
#        150
#        21318
#        41115
#        59340
#        78531
#        102138
#        121158
#        134331
#        154515
#        175893
#        186413
#        200233
#        214734
#
# Disc length: 3083 seconds
#
# Revision: 24
# Processed by: cddbd v1.5.2PL0 Copyright (c) Steve Scherf et al.
# Submitted via: ExactAudioCopyFreeDBPlugin 1.0
#
DISCID=bb0c090d
DTITLE=Selena - Dreaming Of You
DYEAR=1995
DGENRE=Pop
TTITLE0=I Could Fall In Love
TTITLE1=Captive Heart
TTITLE2=I'm Getting Used To You
TTITLE3=God's Child (Baila Conmigo)
TTITLE4=Dreaming Of You
TTITLE5=Missing My Baby
TTITLE6=Amor Prohibido
TTITLE7=Wherever You Are (Donde Quiera Que Estes)
TTITLE8=Techno Cumbia
TTITLE9=El Toro Relajo
TTITLE10=Como La Flor
TTITLE11=Tu Solo Tu
TTITLE12=Bidi Bidi Bom Bom
EXTD=
EXTT0=
EXTT1=
EXTT2=
EXTT3=
EXTT4=
EXTT5=
EXTT6=
EXTT7=
EXTT8=
EXTT9=
EXTT10=
EXTT11=
EXTT12=
PLAYORDER=
